<?xml version="1.0" encoding="utf-8"?>
<!-- Generator: Adobe Illustrator 16.0.0, SVG Export Plug-In . SVG Version: 6.00 Build 0)  -->
<!DOCTYPE svg PUBLIC "-//W3C//DTD SVG 1.1//EN" "http://www.w3.org/Graphics/SVG/1.1/DTD/svg11.dtd">
<svg version="1.1" id="Layer_1" xmlns="http://www.w3.org/2000/svg" xmlns:xlink="http://www.w3.org/1999/xlink" x="0px" y="0px"
	 width="1190.551px" height="841.891px" viewBox="0 0 1190.551 841.891" enable-background="new 0 0 1190.551 841.891"
	 xml:space="preserve">
<g>
	<g>
		<path fill="#FFFFFF" d="M752.558,616.081c5.221,5.222,11.747,7.832,18.927,7.832c7.179,0,13.705-2.61,18.926-7.832l176.21-176.209
			c1.305-1.306,2.61-2.61,3.263-3.916c0,0,0.652-0.652,0.652-1.306c0.653-1.305,1.306-2.61,1.958-3.263c0-0.652,0-1.306,0.652-1.306
			c0.653-1.305,0.653-1.958,1.306-3.263c0.652-1.958,0.652-3.264,0.652-5.221c0-1.958,0-3.264-0.652-5.222
			c0-1.305-0.652-2.61-1.306-3.263c0-0.653,0-1.306-0.652-1.306c-0.652-1.305-1.305-2.61-1.958-3.916c0,0,0-0.652-0.652-0.652
			c-0.652-1.305-1.958-2.61-3.263-3.916l-176.21-176.209c-10.442-10.442-27.41-10.442-37.853,0
			c-10.441,10.441-10.441,27.41,0,37.853l130.525,130.525H419.065c-15.011,0-26.758,11.747-26.758,26.758
			s11.747,26.758,26.758,26.758h464.019L752.558,579.534C742.117,588.671,742.117,605.639,752.558,616.081L752.558,616.081z"/>
		<path fill="#FFFFFF" d="M242.856,799.469h352.419c15.011,0,26.758-11.747,26.758-26.758V509.703
			c0-15.011-11.747-26.758-26.758-26.758s-26.758,11.747-26.758,26.758v236.251H269.614V95.284h298.903v236.251
			c0,15.011,11.747,26.758,26.758,26.758s26.758-11.747,26.758-26.758V68.526c0-15.011-11.747-26.758-26.758-26.758H242.856
			c-15.011,0-26.758,11.747-26.758,26.758v704.186C216.751,787.722,228.498,799.469,242.856,799.469L242.856,799.469z"/>
	</g>
</g>
</svg>
