<?xml version="1.0" encoding="utf-8"?>
<!-- Generator: Adobe Illustrator 16.0.0, SVG Export Plug-In . SVG Version: 6.00 Build 0)  -->
<!DOCTYPE svg PUBLIC "-//W3C//DTD SVG 1.1//EN" "http://www.w3.org/Graphics/SVG/1.1/DTD/svg11.dtd">
<svg version="1.1" id="Layer_1" xmlns="http://www.w3.org/2000/svg" xmlns:xlink="http://www.w3.org/1999/xlink" x="0px" y="0px"
	 width="595.337px" height="595.346px" viewBox="123.276 -0.028 595.337 595.346"
	 enable-background="new 123.276 -0.028 595.337 595.346" xml:space="preserve">
<path d="M461.323,297.64L710.251,48.713c11.15-11.15,11.15-29.228,0-40.378s-29.228-11.15-40.378,0L420.945,257.262L172.017,8.373
	c-11.15-11.151-29.228-11.151-40.378,0c-11.151,11.15-11.151,29.228,0,40.378l248.928,248.928l-248.89,248.89
	c-11.151,11.15-11.151,29.228,0,40.378c5.594,5.557,12.862,8.372,20.17,8.372c7.307,0,14.613-2.777,20.17-8.372l248.928-248.928
	l248.928,248.928c5.595,5.557,12.863,8.372,20.17,8.372s14.613-2.777,20.17-8.372c11.15-11.15,11.15-29.228,0-40.378L461.323,297.64
	z"/>
</svg>
