<?xml version="1.0" encoding="utf-8"?>
<!-- Generator: Adobe Illustrator 16.0.0, SVG Export Plug-In . SVG Version: 6.00 Build 0)  -->
<!DOCTYPE svg PUBLIC "-//W3C//DTD SVG 1.1//EN" "http://www.w3.org/Graphics/SVG/1.1/DTD/svg11.dtd">
<svg version="1.1" id="Capa_1" xmlns="http://www.w3.org/2000/svg" xmlns:xlink="http://www.w3.org/1999/xlink" x="0px" y="0px"
	 width="595.281px" height="595.276px" viewBox="123.304 0.002 595.281 595.276"
	 enable-background="new 123.304 0.002 595.281 595.276" xml:space="preserve">
<g>
	<g>
		<path d="M148.817,131.811h544.256c14.032,0,25.513-11.48,25.513-25.512s-11.48-25.512-25.513-25.512H148.817
			c-14.032,0-25.513,11.48-25.513,25.512S134.785,131.811,148.817,131.811z"/>
		<path d="M148.817,323.152h544.256c14.032,0,25.513-11.48,25.513-25.513c0-14.031-11.48-25.512-25.513-25.512H148.817
			c-14.032,0-25.513,11.48-25.513,25.512C123.304,311.672,134.785,323.152,148.817,323.152z"/>
		<path d="M148.817,514.492h544.256c14.032,0,25.513-11.48,25.513-25.513c0-14.031-11.48-25.512-25.513-25.512H148.817
			c-14.032,0-25.513,11.48-25.513,25.512C123.304,503.011,134.785,514.492,148.817,514.492z"/>
	</g>
</g>
</svg>
