<?xml version="1.0" encoding="utf-8"?>
<!-- Generator: Adobe Illustrator 16.0.0, SVG Export Plug-In . SVG Version: 6.00 Build 0)  -->
<!DOCTYPE svg PUBLIC "-//W3C//DTD SVG 1.1//EN" "http://www.w3.org/Graphics/SVG/1.1/DTD/svg11.dtd">
<svg version="1.1" id="Layer_1" xmlns="http://www.w3.org/2000/svg" xmlns:xlink="http://www.w3.org/1999/xlink" x="0px" y="0px"
	 width="125.232px" height="63.081px" viewBox="-3.5 46.562 125.232 63.081" enable-background="new -3.5 46.562 125.232 63.081"
	 xml:space="preserve">
<g id="Logo_13_">
	<rect x="6.283" y="46.166" fill="none" width="121.437" height="61.375"/>
	<g>
		<path fill="#FFFFFF" d="M111.704,68.06c0.895,0,1.66-0.135,2.3-0.406s1.17-0.627,1.591-1.064c0.42-0.438,0.727-0.938,0.92-1.498
			c0.192-0.561,0.289-1.139,0.289-1.734c0-0.648-0.118-1.209-0.355-1.684c-0.236-0.473-0.556-0.854-0.959-1.143
			s-0.876-0.504-1.419-0.645c-0.544-0.139-1.122-0.209-1.735-0.209c-0.981,0-1.8,0.152-2.457,0.459s-1.183,0.684-1.577,1.131
			s-0.68,0.924-0.854,1.432c-0.175,0.51-0.263,0.965-0.263,1.367c0,1.209,0.368,2.178,1.104,2.904
			C109.024,67.697,110.162,68.06,111.704,68.06z"/>
		<path fill="#FFFFFF" d="M121.41,94.197l-0.207,0.151c0,0-0.412,0.307-1.185,0.876c-0.787,0.549-1.816,1.48-3.355,2.346
			c-1.452,0.971-3.341,1.932-5.521,2.902c-2.226,0.895-4.765,1.767-7.641,2.307c-0.717,0.135-1.439,0.306-2.191,0.414
			c-0.757,0.086-1.526,0.172-2.31,0.257c-0.773,0.129-1.581,0.158-2.396,0.198c-0.817,0.032-1.637,0.118-2.479,0.104
			c-3.364,0.021-6.93-0.197-10.622-0.585c-3.698-0.353-7.525-0.997-11.413-1.688c-3.854-0.694-7.872-1.74-11.932-2.523
			c-4.057-0.833-8.163-1.455-12.223-1.919c-0.683-0.065-1.362-0.122-2.042-0.181c0.482-0.159,0.964-0.335,1.442-0.54
			c0.859-0.369,1.699-0.789,2.523-1.262s1.59-0.959,2.301-1.459c0.175-0.123,0.332-0.245,0.498-0.367l0,0
			c0.079,0.656,0.236,1.244,0.474,1.76c0.236,0.518,0.573,0.93,1.012,1.236c0.438,0.307,1.016,0.459,1.734,0.459
			c0.578,0,1.086-0.131,1.524-0.395c0.438-0.262,0.832-0.752,1.183-1.471l6.887-13.668h0.42c-0.21,1.402-0.385,2.713-0.525,3.93
			c-0.141,1.219-0.21,2.352-0.21,3.404c0,2.68,0.328,4.717,0.985,6.109c0.657,1.395,1.468,2.09,2.432,2.09
			c0.963,0,1.883-0.135,2.76-0.406c0.876-0.271,1.717-0.623,2.522-1.053c0.806-0.428,1.581-0.914,2.326-1.457
			c0.206-0.149,0.402-0.3,0.605-0.45c0.075,0.577,0.192,1.109,0.381,1.565c0.228,0.553,0.561,0.99,0.999,1.314
			c0.438,0.324,1.033,0.486,1.787,0.486c0.561,0,1.056-0.135,1.485-0.406c0.429-0.271,0.845-0.758,1.248-1.459l7.728-13.563
			c0.561-0.963,1.077-1.639,1.551-2.023c0.473-0.385,0.858-0.578,1.156-0.578c0.245,0,0.434,0.113,0.565,0.342
			c0.131,0.227,0.197,0.525,0.197,0.893c0,0.193-0.053,0.377-0.158,0.553s-0.254,0.363-0.446,0.564
			c-0.193,0.201-0.421,0.43-0.684,0.684s-0.552,0.539-0.867,0.854c-0.789,1.018-1.429,1.969-1.919,2.852
			c-0.491,0.887-0.872,1.695-1.144,2.432s-0.456,1.398-0.552,1.984c-0.097,0.588-0.145,1.082-0.145,1.486
			c0,0.682,0.083,1.344,0.25,1.984c0.166,0.639,0.477,1.213,0.933,1.721c0.455,0.508,1.082,0.916,1.879,1.223
			c0.798,0.307,1.827,0.459,3.089,0.459c0.963,0,1.967-0.139,3.009-0.42c1.043-0.279,2.051-0.67,3.023-1.17
			c0.799-0.411,1.538-0.896,2.243-1.424c0.169,0.609,0.428,1.138,0.792,1.568c0.386,0.457,0.89,0.811,1.512,1.064
			c0.621,0.254,1.389,0.381,2.3,0.381c1.016,0,2.089-0.184,3.22-0.551c1.13-0.369,2.238-0.828,3.324-1.381
			c1.087-0.551,2.099-1.156,3.036-1.813c0.938-0.658,1.722-1.275,2.353-1.854V85.75c-0.578,0.473-1.244,1.043-1.998,1.709
			c-0.753,0.666-1.524,1.311-2.313,1.932c-0.789,0.621-1.568,1.152-2.339,1.59c-0.771,0.438-1.473,0.656-2.104,0.656
			c-0.543,0-0.902-0.23-1.077-0.695c-0.176-0.465-0.263-1.092-0.263-1.879c0-0.807,0.087-1.713,0.263-2.721
			c0.175-1.008,0.395-2.041,0.657-3.102s0.543-2.119,0.841-3.18s0.578-2.051,0.841-2.971s0.482-1.744,0.657-2.471
			s0.263-1.283,0.263-1.668c0-0.457-0.131-0.82-0.394-1.092c-0.264-0.271-0.763-0.408-1.499-0.408c-0.403,0-0.854,0.049-1.354,0.145
			c-0.499,0.098-0.981,0.246-1.445,0.447c-0.465,0.201-0.881,0.465-1.248,0.789c-0.368,0.324-0.614,0.715-0.736,1.17
			c-0.315,1.314-0.679,2.75-1.091,4.311c-0.412,1.559-0.802,3.123-1.17,4.691c-0.169,0.72-0.322,1.426-0.467,2.124
			c-0.192,0.217-0.394,0.45-0.61,0.714c-0.368,0.447-0.758,0.916-1.17,1.406s-0.841,0.973-1.288,1.445
			c-0.446,0.475-0.889,0.902-1.327,1.289c-0.438,0.385-0.863,0.695-1.274,0.932c-0.412,0.238-0.793,0.355-1.144,0.355
			c-0.648,0-1.126-0.135-1.433-0.406s-0.46-0.725-0.46-1.355c0-0.734,0.175-1.471,0.526-2.207c0.35-0.736,0.788-1.477,1.313-2.221
			c0.526-0.744,1.095-1.484,1.709-2.221c0.613-0.736,1.183-1.473,1.708-2.209c0.525-0.734,0.964-1.467,1.314-2.193
			s0.525-1.449,0.525-2.168c0-0.736-0.097-1.402-0.289-1.998c-0.193-0.596-0.456-1.104-0.788-1.525
			c-0.333-0.42-0.723-0.744-1.17-0.973c-0.447-0.227-0.916-0.342-1.406-0.342c-0.964,0-1.84,0.137-2.628,0.408
			c-0.789,0.271-1.455,0.6-1.998,0.986c-0.351,0.244-0.828,0.709-1.433,1.393s-1.271,1.463-1.997,2.34
			c-0.728,0.875-1.468,1.795-2.221,2.76c-0.754,0.963-1.446,1.848-2.077,2.654l-0.63-0.395l3.127-4.678
			c0.158-0.281,0.478-0.873,0.96-1.775c0.481-0.902,1.038-2.01,1.669-3.324s1.288-2.787,1.971-4.416
			c0.684-1.629,1.314-3.307,1.893-5.033s1.056-3.447,1.433-5.164s0.565-3.32,0.565-4.811c0-0.842-0.07-1.621-0.211-2.34
			c-0.141-0.717-0.381-1.336-0.723-1.852c-0.342-0.518-0.802-0.92-1.38-1.209s-1.314-0.434-2.208-0.434
			c-1.139,0-2.19,0.236-3.153,0.709c-0.964,0.473-1.85,1.117-2.655,1.932s-1.533,1.766-2.182,2.852
			c-0.648,1.088-1.23,2.23-1.747,3.43c-0.518,1.201-0.973,2.436-1.367,3.707c-0.395,1.27-0.735,2.492-1.025,3.666
			c-0.289,1.174-0.529,2.273-0.723,3.299c-0.192,1.025-0.351,1.896-0.473,2.615c-0.333,2.033-0.618,4.127-0.854,6.281
			c-0.236,2.156-0.425,4.219-0.565,6.189c-0.14,1.971-0.245,3.781-0.314,5.428c-0.016,0.355-0.028,0.689-0.04,1.015
			c-0.126,0.114-0.258,0.242-0.382,0.353c-0.403,0.35-0.811,0.691-1.222,1.025c-0.412,0.332-0.815,0.627-1.209,0.881
			c-0.395,0.254-0.763,0.459-1.104,0.617c-0.342,0.156-0.644,0.236-0.906,0.236c-0.578,0-1.004-0.35-1.275-1.051
			s-0.407-1.596-0.407-2.682c0-0.648,0.04-1.357,0.118-2.129c0.079-0.771,0.18-1.551,0.303-2.34
			c0.122-0.787,0.258-1.559,0.407-2.313c0.148-0.754,0.285-1.445,0.407-2.076c0.123-0.631,0.224-1.174,0.303-1.629
			c0.079-0.457,0.118-0.779,0.118-0.973c0-1.297-0.259-2.314-0.775-3.049c-0.518-0.736-1.214-1.105-2.09-1.105
			s-1.673,0.176-2.392,0.527c-0.719,0.35-1.358,0.998-1.919,1.943c-0.122,0.211-0.307,0.535-0.552,0.973
			c-0.245,0.439-0.517,0.943-0.814,1.512c-0.298,0.57-0.618,1.166-0.96,1.787c-0.341,0.623-0.661,1.215-0.959,1.775
			s-0.561,1.055-0.788,1.484c-0.229,0.43-0.395,0.74-0.5,0.934h-0.525c0-0.123,0.026-0.363,0.079-0.723s0.118-0.781,0.197-1.262
			c0.078-0.482,0.161-1.008,0.249-1.578c0.088-0.568,0.171-1.121,0.25-1.656c0.079-0.533,0.145-1.023,0.197-1.471
			s0.079-0.803,0.079-1.064c0-0.965-0.185-1.734-0.553-2.313c-0.367-0.58-1.024-0.869-1.971-0.869s-1.695,0.273-2.247,0.816
			c-0.553,0.543-0.925,1.217-1.117,2.023c-0.246,1.033-0.5,2.277-0.763,3.732c-0.263,1.453-0.499,2.965-0.709,4.533
			c-0.176,1.304-0.312,2.579-0.438,3.847c-0.003,0.002-0.006,0.003-0.009,0.005c-0.525,0.297-1.092,0.625-1.695,0.984
			c-0.605,0.359-1.236,0.719-1.893,1.078c-0.658,0.359-1.289,0.684-1.893,0.973c-0.605,0.289-1.174,0.525-1.709,0.709
			s-0.977,0.275-1.326,0.275c-0.193,0-0.352-0.039-0.475-0.117c-0.121-0.078-0.219-0.223-0.289-0.434s-0.117-0.496-0.145-0.854
			c-0.025-0.359-0.039-0.82-0.039-1.381c0-0.719,0.018-1.41,0.053-2.076s0.078-1.385,0.131-2.156
			c0.264-0.91,0.588-1.979,0.973-3.205c0.387-1.227,0.785-2.533,1.197-3.916c0.41-1.385,0.822-2.813,1.234-4.285
			s0.783-2.926,1.117-4.363c0.332-1.436,0.6-2.813,0.801-4.127c0.201-1.313,0.303-2.496,0.303-3.547c0-1.35-0.092-2.418-0.275-3.207
			s-0.434-1.389-0.75-1.801c-0.314-0.412-0.684-0.688-1.104-0.828c-0.42-0.139-0.867-0.232-1.34-0.275s-0.955-0.096-1.445-0.158
			c-0.492-0.061-0.973-0.232-1.445-0.512v-0.131c0-0.035,0.004-0.088,0.012-0.158c0.01-0.07,0.014-0.148,0.014-0.236
			c0-0.123-0.025-0.264-0.078-0.422c-0.053-0.156-0.172-0.311-0.355-0.459s-0.455-0.271-0.814-0.369
			c-0.359-0.096-0.838-0.145-1.433-0.145c-2.191,0-4.302,0.299-6.334,0.895c-2.033,0.596-3.969,1.416-5.809,2.457
			c-1.84,1.043-3.57,2.279-5.191,3.707c-1.621,1.428-3.115,2.979-4.481,4.652c-1.367,1.672-2.584,3.438-3.653,5.295
			s-1.98,3.732-2.733,5.625c-0.753,1.893-1.327,3.768-1.722,5.625c-0.394,1.857-0.591,3.635-0.591,5.336
			c0,2.242,0.329,4.205,0.986,5.887c0.657,1.682,1.546,3.088,2.667,4.219c1.121,1.129,2.414,1.98,3.877,2.549
			c1.004,0.392,2.051,0.639,3.134,0.762c-1.868,0.424-3.656,0.898-5.322,1.462c-0.735,0.243-1.461,0.478-2.168,0.708
			c-0.698,0.253-1.364,0.543-2.023,0.803c-1.316,0.523-2.56,1.02-3.677,1.605c-1.124,0.569-2.205,1.03-3.147,1.586
			c-0.939,0.553-1.802,1.06-2.585,1.518c-1.561,0.908-2.657,1.779-3.466,2.3c-0.79,0.543-1.211,0.832-1.211,0.832l-0.209,0.146
			l0.26,0.411l0.219-0.129c0,0,0.441-0.26,1.269-0.75c0.838-0.461,2.011-1.267,3.604-2.047c1.586-0.793,3.489-1.776,5.794-2.675
			c1.124-0.51,2.369-0.922,3.682-1.353c0.653-0.217,1.319-0.457,2.014-0.665c0.701-0.184,1.415-0.368,2.147-0.563
			c2.916-0.8,6.157-1.322,9.585-1.721c1.718-0.161,3.493-0.276,5.298-0.369c1.816-0.01,3.666-0.102,5.549,0.014
			c3.766,0.072,7.649,0.54,11.568,1.096c3.912,0.635,7.868,1.422,11.78,2.415c3.919,0.99,7.775,2.182,11.785,3.198
			c3.97,1.03,7.948,1.79,11.864,2.304c3.929,0.405,7.783,0.55,11.44,0.237c3.649-0.346,7.106-0.889,10.165-1.945
			c3.088-0.914,5.736-2.283,7.975-3.593c2.188-1.415,3.981-2.78,5.279-4.101c1.392-1.204,2.232-2.401,2.863-3.143
			c0.608-0.756,0.933-1.158,0.933-1.158l0.159-0.2L121.41,94.197z M83.292,72.32c0.105-0.912,0.232-1.885,0.381-2.918
			c0.149-1.033,0.32-2.08,0.513-3.141s0.407-2.125,0.645-3.193c0.236-1.068,0.494-2.104,0.775-3.102
			c0.455-1.139,0.862-2.174,1.222-3.102c0.359-0.93,0.719-1.717,1.078-2.365c0.358-0.648,0.739-1.148,1.143-1.498
			c0.403-0.352,0.885-0.527,1.446-0.527c0.367,0,0.552,0.281,0.552,0.842c0,0.404-0.07,0.895-0.21,1.473
			c-0.141,0.578-0.32,1.199-0.539,1.865c-0.22,0.666-0.46,1.357-0.723,2.076c-0.264,0.719-0.526,1.41-0.789,2.076
			s-0.508,1.289-0.735,1.867c-0.229,0.578-0.403,1.061-0.526,1.445c-0.263,0.824-0.591,1.826-0.985,3.01
			c-0.395,1.182-0.814,2.436-1.262,3.758c-0.446,1.324-0.898,2.664-1.354,4.021c-0.456,1.357-0.876,2.615-1.262,3.771
			C82.82,76.595,83.03,74.474,83.292,72.32z M18.701,90.441c-0.99-1.357-1.485-3.271-1.485-5.742c0-1.244,0.158-2.607,0.473-4.088
			c0.315-1.48,0.771-3.004,1.367-4.572c0.595-1.568,1.305-3.141,2.129-4.719c0.823-1.576,1.748-3.096,2.773-4.561
			c1.025-1.463,2.129-2.828,3.312-4.1c1.183-1.27,2.427-2.373,3.732-3.313c1.305-0.936,2.65-1.676,4.034-2.221
			c1.384-0.543,2.786-0.814,4.206-0.814c0.612,0,1.249,0.039,1.905,0.119c0.656,0.078,1.293,0.205,1.906,0.381l-5.467,20.291
			c-0.176,0.771-0.465,1.686-0.868,2.746c-0.403,1.061-0.916,2.16-1.538,3.299s-1.35,2.264-2.182,3.377s-1.748,2.111-2.747,2.996
			c-0.999,0.885-2.081,1.6-3.246,2.143c-1.166,0.543-2.396,0.814-3.693,0.814C21.228,92.478,19.691,91.801,18.701,90.441z
			 M35.95,96.458c-2.83,0.017-5.585,0.207-8.234,0.52c0.985-0.464,1.95-1.033,2.891-1.726c1.393-1.025,2.707-2.295,3.942-3.811
			s2.343-3.264,3.325-5.244c-0.141,0.824-0.254,1.59-0.342,2.299c-0.088,0.711-0.131,1.371-0.131,1.984
			c0,1.455,0.148,2.639,0.447,3.549c0.298,0.912,0.679,1.625,1.143,2.143c0.096,0.106,0.195,0.201,0.295,0.294
			C38.167,96.438,37.052,96.429,35.95,96.458z"/>
	</g>
</g>
</svg>
