<?xml version="1.0" encoding="utf-8"?>
<!-- Generator: Adobe Illustrator 16.0.0, SVG Export Plug-In . SVG Version: 6.00 Build 0)  -->
<!DOCTYPE svg PUBLIC "-//W3C//DTD SVG 1.1//EN" "http://www.w3.org/Graphics/SVG/1.1/DTD/svg11.dtd">
<svg version="1.1" id="Capa_1" xmlns="http://www.w3.org/2000/svg" xmlns:xlink="http://www.w3.org/1999/xlink" x="0px" y="0px"
	 width="1190.551px" height="841.891px" viewBox="0 0 1190.551 841.891" enable-background="new 0 0 1190.551 841.891"
	 xml:space="preserve">
<path fill="#1E201D" d="M259.19,132.716c-13.235-13.235-12.893-34.618,0.342-47.854c13.236-13.235,34.276-13.235,47.511,0
	l288.124,288.124L883.311,84.842c13.257-13.215,34.982-13.215,48.218,0.021c13.234,13.235,12.894,34.618-0.344,47.854
	L643.041,420.86l288.124,288.123c13.235,13.234,13.576,34.617,0.342,47.853c-13.235,13.236-34.96,13.236-48.196,0L595.188,468.713
	L307.044,756.856c-13.235,13.236-34.618,13.579-47.853,0.344c-13.236-13.235-13.236-34.961,0-48.195L547.335,420.86L259.19,132.716z
	"/>
</svg>
